<?xml version="1.0" standalone="no"?>
<!DOCTYPE svg PUBLIC "-//W3C//DTD SVG 20010904//EN"
 "http://www.w3.org/TR/2001/REC-SVG-20010904/DTD/svg10.dtd">
<svg version="1.0" xmlns="http://www.w3.org/2000/svg"
 width="500.000000pt" height="500.000000pt" viewBox="0 0 500.000000 500.000000"
 preserveAspectRatio="xMidYMid meet">
<metadata>
Created by potrace 1.14, written by Peter Selinger 2001-2017
</metadata>
<g transform="translate(0.000000,500.000000) scale(0.100000,-0.100000)"
fill="#000000" stroke="none">
<path d="M2375 3404 c-11 -2 -51 -12 -89 -20 -320 -73 -588 -340 -670 -665 -9
-36 -16 -69 -16 -73 0 -4 21 -6 46 -4 l46 3 24 83 c42 143 113 261 220 363
105 99 198 152 341 195 76 23 106 27 223 27 117 0 147 -4 223 -27 143 -43 236
-96 341 -195 107 -102 178 -220 220 -363 l24 -83 46 -3 c25 -2 46 0 46 4 0 4
-7 37 -16 73 -68 270 -272 511 -524 616 -121 52 -193 66 -335 70 -71 2 -139 2
-150 -1z"/>
<path d="M2389 3175 c-3 -2 -1 -36 4 -75 9 -64 12 -71 31 -68 22 3 24 16 11
106 -5 31 -11 42 -24 42 -10 0 -20 -2 -22 -5z"/>
<path d="M2566 3158 c-8 -13 -17 -42 -21 -65 -8 -49 -1 -55 94 -74 59 -13 64
-12 77 6 8 10 14 22 14 26 0 12 -38 17 -48 7 -7 -7 -24 -7 -49 -1 -28 6 -39
14 -41 31 -5 35 15 52 51 45 18 -3 37 -12 43 -19 14 -17 54 -18 54 -1 0 26
-20 40 -76 53 -78 18 -81 18 -98 -8z"/>
<path d="M1300 3152 c-20 -10 -42 -32 -52 -52 -16 -33 -16 -54 -1 -335 9 -165
19 -303 22 -307 3 -3 65 -2 136 2 299 21 275 21 275 -4 0 -22 -3 -23 -201 -34
-111 -6 -204 -14 -207 -16 -2 -3 3 -137 12 -298 18 -323 19 -326 87 -361 63
-32 167 -2 195 56 14 29 14 59 1 287 -8 140 -12 257 -10 260 22 24 1864 24
1886 0 2 -3 -2 -120 -10 -260 -13 -228 -13 -258 1 -287 28 -58 132 -88 195
-56 68 35 69 38 87 361 9 161 14 295 12 298 -3 2 -96 10 -207 16 -198 11 -201
12 -201 34 0 25 -24 25 275 4 72 -4 133 -5 136 -2 3 4 13 142 22 307 15 281
15 302 -1 335 -42 86 -193 95 -246 15 -14 -21 -20 -75 -32 -283 -8 -141 -16
-258 -18 -259 -1 -2 -217 2 -479 9 -371 9 -583 9 -954 0 -262 -7 -478 -11
-479 -9 -2 1 -10 118 -18 259 -16 278 -20 294 -77 324 -38 19 -106 18 -149 -4z
m480 -677 c0 -20 5 -25 25 -25 14 0 25 -4 25 -10 0 -5 -16 -10 -35 -10 -33 0
-35 2 -35 35 0 19 5 35 10 35 6 0 10 -11 10 -25z m155 -10 c0 -28 -3 -30 -42
-33 l-43 -3 0 36 0 36 43 -3 c39 -3 42 -5 42 -33z m113 3 c-3 -31 -5 -33 -43
-33 -38 0 -40 2 -43 33 -3 32 -3 32 43 32 46 0 46 0 43 -32z m44 21 c3 -9 9
-9 25 0 31 16 52 14 29 -4 -19 -14 -19 -15 -1 -35 15 -17 16 -20 3 -20 -9 0
-21 7 -28 15 -7 8 -16 15 -21 15 -5 0 -9 -7 -9 -15 0 -8 -4 -15 -10 -15 -5 0
-10 16 -10 35 0 33 14 48 22 24z m108 -14 c0 -20 5 -25 25 -25 20 0 25 5 25
25 0 14 5 25 11 25 6 0 9 -14 7 -32 -3 -31 -5 -33 -43 -33 -38 0 -40 2 -43 33
-2 18 1 32 7 32 6 0 11 -11 11 -25z m170 0 c0 -21 -5 -25 -30 -25 -16 0 -30
-4 -30 -10 0 -5 -4 -10 -10 -10 -5 0 -10 16 -10 35 0 34 1 35 40 35 36 0 40
-2 40 -25z m103 3 l16 -23 0 23 c1 37 21 25 21 -13 0 -43 -20 -46 -49 -9 l-21
27 0 -27 c0 -14 -4 -26 -10 -26 -5 0 -10 16 -10 35 0 28 4 35 19 35 10 0 26
-10 34 -22z m152 -13 c0 -28 -3 -30 -42 -33 -38 -3 -43 -1 -49 22 -9 37 3 47
49 44 39 -3 42 -5 42 -33z m105 25 c0 -5 -7 -10 -15 -10 -9 0 -15 -9 -15 -25
0 -14 -4 -25 -10 -25 -5 0 -10 11 -10 25 0 15 -6 25 -14 25 -8 0 -18 5 -21 10
-4 6 12 10 39 10 25 0 46 -4 46 -10z m125 -25 c0 -28 -3 -30 -42 -33 l-43 -3
0 36 0 36 43 -3 c39 -3 42 -5 42 -33z m113 3 c-3 -31 -5 -33 -43 -33 -30 0
-41 4 -43 18 -7 35 6 47 48 47 40 0 41 -1 38 -32z m48 7 c7 -28 24 -24 24 6 0
29 32 20 41 -11 l6 -25 11 28 c6 15 16 27 22 27 13 0 13 -6 -5 -40 -18 -36
-40 -39 -49 -7 l-7 22 -9 -22 c-13 -33 -36 -28 -49 8 -13 39 -13 39 -1 39 5 0
12 -11 16 -25z m185 3 l18 -23 1 23 c0 12 5 22 10 22 6 0 10 -16 10 -35 0 -44
-27 -48 -52 -7 l-17 27 -1 -27 c0 -16 -4 -28 -10 -28 -5 0 -10 16 -10 35 0 42
22 47 51 13z"/>
<path d="M1870 2465 c0 -9 9 -15 25 -15 16 0 25 6 25 15 0 9 -9 15 -25 15 -16
0 -25 -6 -25 -15z"/>
<path d="M1980 2465 c0 -9 9 -15 25 -15 16 0 25 6 25 15 0 9 -9 15 -25 15 -16
0 -25 -6 -25 -15z"/>
<path d="M2318 2473 c6 -2 18 -2 25 0 6 3 1 5 -13 5 -14 0 -19 -2 -12 -5z"/>
<path d="M2557 2474 c-11 -12 3 -24 29 -24 15 0 24 6 24 15 0 15 -40 21 -53 9z"/>
<path d="M2790 2465 c0 -9 9 -15 25 -15 16 0 25 6 25 15 0 9 -9 15 -25 15 -16
0 -25 -6 -25 -15z"/>
<path d="M2900 2465 c0 -9 9 -15 25 -15 16 0 25 6 25 15 0 9 -9 15 -25 15 -16
0 -25 -6 -25 -15z"/>
<path d="M2168 3094 c-38 -19 -68 -37 -68 -41 0 -5 57 -112 65 -121 1 -1 10 0
19 4 12 5 16 14 12 29 -4 17 1 25 30 39 28 13 39 14 50 5 15 -12 44 -6 44 10
0 5 -7 16 -15 25 -8 8 -15 21 -15 28 0 19 -29 58 -43 58 -7 -1 -42 -17 -79
-36z m77 -24 c6 -10 -51 -50 -72 -50 -23 0 -13 29 15 44 32 18 49 20 57 6z"/>
<path d="M2847 3046 c-13 -20 -14 -26 -3 -35 17 -14 51 21 43 44 -9 22 -22 19
-40 -9z"/>
<path d="M979 3017 c-65 -43 -64 -26 -35 -570 15 -271 31 -509 36 -529 16 -57
60 -88 126 -88 104 0 144 43 144 153 0 36 -11 269 -25 518 -28 487 -28 489
-85 523 -42 24 -120 21 -161 -7z"/>
<path d="M3859 3023 c-56 -34 -56 -37 -84 -522 -14 -249 -25 -482 -25 -518 0
-111 40 -153 146 -153 50 0 59 3 89 33 20 20 36 47 39 68 5 31 12 162 47 801
12 231 10 245 -50 285 -41 28 -122 31 -162 6z"/>
<path d="M2957 2932 c-22 -24 -22 -27 13 -83 16 -27 25 -51 20 -54 -12 -7 -60
64 -54 80 3 6 -1 17 -9 24 -11 9 -17 8 -28 -5 -11 -13 -10 -21 7 -52 28 -53
63 -92 83 -92 28 0 57 38 45 58 -6 9 -20 34 -32 54 -13 20 -19 39 -13 42 12 8
31 -17 46 -61 14 -41 38 -51 43 -17 4 28 -58 118 -84 122 -11 2 -28 -6 -37
-16z"/>
<path d="M1940 2874 c-23 -36 -40 -67 -38 -69 2 -2 30 -19 62 -38 l59 -36 42
67 c24 37 41 70 38 75 -11 18 -33 3 -57 -38 -15 -25 -31 -45 -36 -45 -15 0
-13 7 16 55 23 40 25 65 6 65 -4 0 -18 -20 -32 -45 -23 -43 -40 -57 -40 -35 0
6 11 28 25 51 24 37 26 59 5 59 -4 0 -27 -30 -50 -66z"/>
<path d="M683 2775 c-55 -23 -75 -68 -70 -152 4 -67 2 -74 -20 -88 -22 -15
-23 -22 -23 -116 0 -100 0 -101 31 -130 26 -25 31 -37 36 -99 7 -81 26 -114
80 -136 63 -27 161 3 189 57 14 28 14 55 0 311 -18 307 -21 324 -82 353 -40
19 -99 19 -141 0z"/>
<path d="M4174 2774 c-59 -29 -63 -46 -80 -352 -14 -256 -14 -283 0 -311 28
-54 126 -84 189 -57 54 22 73 55 80 136 5 62 10 74 36 99 31 29 31 30 31 130
0 94 -1 101 -23 116 -22 14 -24 21 -20 88 4 60 1 77 -17 105 -36 57 -129 79
-196 46z"/>
<path d="M1625 2249 c14 -62 66 -174 119 -253 95 -143 244 -268 396 -331 134
-57 200 -70 360 -70 160 0 226 13 360 70 152 63 301 188 396 331 53 79 105
191 119 253 l7 31 -47 0 c-34 0 -47 -4 -52 -17 -46 -136 -95 -221 -182 -315
-108 -117 -221 -187 -378 -234 -76 -23 -106 -27 -223 -27 -117 0 -147 4 -223
27 -157 47 -270 117 -378 234 -87 94 -136 179 -182 315 -5 13 -18 17 -52 17
l-47 0 7 -31z"/>
<path d="M1916 2244 c21 -50 59 -110 107 -167 45 -54 74 -74 89 -59 6 6 -5 25
-34 53 -51 51 -103 124 -124 174 -9 23 -21 35 -34 35 -18 0 -18 -2 -4 -36z"/>
<path d="M3046 2245 c-21 -50 -73 -123 -124 -174 -29 -28 -40 -47 -34 -53 15
-15 44 5 89 59 48 57 86 117 107 167 14 34 14 36 -4 36 -13 0 -25 -12 -34 -35z"/>
<path d="M2290 2195 c0 -8 8 -15 18 -15 10 0 19 7 19 15 0 8 -9 15 -19 15 -10
0 -18 -7 -18 -15z"/>
<path d="M2350 2195 c0 -8 9 -15 20 -15 11 0 20 7 20 15 0 8 -9 15 -20 15 -11
0 -20 -7 -20 -15z"/>
<path d="M2426 2195 c4 -8 7 -15 9 -15 2 0 5 7 9 15 3 9 0 15 -9 15 -9 0 -12
-6 -9 -15z"/>
<path d="M2490 2193 c0 -7 7 -13 15 -13 8 0 15 6 15 13 0 8 -7 14 -15 14 -8 0
-15 -6 -15 -14z"/>
<path d="M2550 2195 c0 -8 9 -15 20 -15 11 0 20 7 20 15 0 8 -9 15 -20 15 -11
0 -20 -7 -20 -15z"/>
<path d="M2626 2195 c4 -8 8 -15 10 -15 2 0 4 7 4 15 0 8 -4 15 -10 15 -5 0
-7 -7 -4 -15z"/>
<path d="M2670 2195 c0 -10 7 -15 18 -13 21 4 19 22 -2 26 -10 2 -16 -3 -16
-13z"/>
<path d="M2171 2016 c-13 -20 -21 -44 -19 -53 3 -17 90 -72 114 -73 7 0 19 11
28 24 15 24 14 25 -20 45 -19 12 -37 21 -40 21 -11 0 -2 -24 14 -36 15 -12 15
-13 1 -14 -9 0 -27 9 -40 19 -20 16 -22 23 -13 38 17 28 39 27 77 -6 41 -36
47 -38 47 -11 0 21 -59 64 -103 75 -20 5 -28 1 -46 -29z"/>
<path d="M2773 2040 c-19 -8 -23 -17 -23 -51 l0 -42 -22 20 c-36 31 -46 35
-70 22 -13 -6 -24 -13 -26 -14 -8 -7 42 -105 53 -105 23 0 24 13 4 51 -11 22
-17 39 -14 39 4 0 24 -14 45 -31 21 -17 43 -28 48 -25 5 3 13 29 17 58 l8 53
15 -37 c14 -35 30 -47 44 -32 9 9 -33 104 -46 103 -6 0 -21 -4 -33 -9z"/>
<path d="M2424 1928 c20 -23 36 -50 36 -60 0 -10 7 -18 15 -18 8 0 15 8 15 18
0 10 13 33 30 52 35 41 37 50 11 50 -11 0 -28 -12 -38 -26 l-19 -26 -17 26
c-11 17 -27 26 -43 26 l-26 0 36 -42z"/>
</g>
</svg>
